# xmcd CD database file
#
# Track frame offsets:
#	150
#	8947
#	20022
#	35798
#	46062
#	66631
#	77644
#	94312
#	106595
#	119280
#	127727
#	136174
#	147945
#	161731
#	184346
#	196784
#	214930
#	235776
#	266707
#	282278
#	296892
#	313115
#
# Disc length: 4420 seconds
#
# Revision: 0
# Processed by: cddbd v1.5.2PL0 Copyright (c) Steve Scherf et al.
# Submitted via: CDex 1.78
#
DISCID=49114216
DTITLE=Cuby and Blizzards - Golden Years Of Dutch Pop Music [Disc 1]
DYEAR=1966
DGENRE=Blues
TTITLE0=Stumble and Fall
TTITLE1=I'm So Restless
TTITLE2=L.S.D. [Got A Million Dollars]
TTITLE3=Your Body Not Your Soul
TTITLE4=Back Home
TTITLE5=Sweet Mary
TTITLE6=You Don't Know
TTITLE7=Richard Cory
TTITLE8=Just For Fun
TTITLE9=Things I Remember
TTITLE10=Another Day Another Road
TTITLE11=Feeling Like a Suit-Case
TTITLE12=Distant Smile
TTITLE13=Don't Know Which Way To Go
TTITLE14=The Sunshine Of Your Shadow
TTITLE15=Crying Tears
TTITLE16=Another Land
TTITLE17=Somebody Will Know Someday
TTITLE18=Window Of My Eyes
TTITLE19=Checkin' Up My Baby
TTITLE20=Nostalgic Toilet
TTITLE21=116 A Queensway
EXTD=YEAR: 1966
EXTT0=
EXTT1=
EXTT2=
EXTT3=
EXTT4=
EXTT5=
EXTT6=
EXTT7=
EXTT8=
EXTT9=
EXTT10=
EXTT11=
EXTT12=
EXTT13=
EXTT14=
EXTT15=
EXTT16=
EXTT17=
EXTT18=
EXTT19=
EXTT20=
EXTT21=
PLAYORDER=
